<svg width="1134" height="1134" xmlns="http://www.w3.org/2000/svg"><path fill="#7BD7D8" stroke="#7BD7D8" opacity=".31" d="M510.5 269v1-1zm-7 2v1-1zm-29 10v1-1zm-2 1v1-1zm-5 2q1.5 1-1 2-1.5-1 1-2zm-3 2v1-1zm-18 9v1-1zm-2 1v1-1zm-2 1v1-1zm-5 3v1-1zm-3 1l1.5.5-1.5.5v-1zm-2 2v1-1zm-6 3l1.5.5-1.5.5v-1zm-3 2l1.5.5-1.5.5v-1zm-3 2l1.5.5-1.5.5v-1zm-2 2v1-1zm-5 3l1.5.5-1.5.5v-1zm-2 2v1-1zm-2 1v1-1zm-2 2q1.5 1-1 2-1.5-1 1-2zm-5 4v1-1zm-5 4q1.5 1-1 2-1.5-1 1-2zm-8 7l.5.5-2.5 2.5-.5-.5 2.5-2.5zm-4 3v1-1zm-2 2q1.5 1-1 2-1.5-1 1-2zm-5 5v1-1zm-2 2q1.5 1-1 2-1.5-1 1-2zm-7.5 7l2 .5-5.5 5.5-.5-.5 4-4V354zm-6.5 8l.5 1.5-3.5 3.5-.5-.5 3.5-4.5zm-5 6l.5 1.5-3.5 3.5-.5-.5 3.5-4.5zm-4 6l.5.5-2.5 2.5-.5-.5 2.5-2.5zm-3 4l.5.5-2.5 2.5-.5-.5 2.5-2.5zm-3 4q1.5 1-1 2-1.5-1 1-2zm-3 4v1-1zm-2 2l.5 1.5q-1 2.5-2 1l1.5-2.5zm-2 4q1.5 1-1 2-1.5-1 1-2zm-2 3q1.5 1-1 2-1.5-1 1-2zm-2 3v1-1zm-1 2q1.5 1-1 2-1.5-1 1-2zm-2 3v1-1zm-1 2q1.5 1-1 2-1.5-1 1-2zm-2 3v1-1zm-1 2v1-1zm-1 2v1-1zm-1 2l-.5 1.5-1.5 2.5.5-1.5 1.5-2.5zm-3 5v1-1zm-1 2v1-1zm-1 2v1-1zm-1 2v1-1zm-1 2v1-1zm-1 2l.5 1.5-1.5 2.5-.5-1.5 1.5-2.5zm-2 5v1-1zm-1 2v1-1zm-1 2l.5 1.5h-1l.5-1.5zm-1 3l-.5 1.5-.5 1.5-.5-1.5 1.5-1.5zm-2 4l.5 1.5h-1l.5-1.5zm-1 3l.5 1.5-1.5 2.5-.5-1.5 1.5-2.5zm-2 5l.5 1.5h-1l.5-1.5zm-1 3l.5 1.5-1.5 2.5-.5-1.5 1.5-2.5zm-9 31l.5 2.5h-1l.5-2.5zm-1 4l.5 3.5h-1l.5-3.5zm-1 5l.5 3.5h-1l.5-3.5zm-1 6l.5 2.5h-1l.5-2.5zm-1 5l.5 4.5h-1l.5-4.5zm-1 6l.5 6.5h-1l.5-6.5zm-1 10l.5 6.5h-1l.5-6.5zm-1 10l.5 2 116 .5-117 .5.5-3zm550 109v1-1zm8 17l.5 1.5h-1l.5-1.5zm-2 6v1-1zm-1 2v1-1zm-1 3l.5 1.5q-1 2.5-2 1l1.5-2.5zm-2 4v1-1zm-1 2v1-1zm-8 16v1-1zm-1 2v1-1zm-1 2v1-1zm-1 2v1-1zm-2 3v1-1zm-1 2l.5 1.5h-1l.5-1.5zm-2 3v1-1zm-1 2v1-1zm-2 3v1-1zm-2 3v1-1zm-2 3l.5 1.5h-1l.5-1.5zm-2 3l.5 1.5h-1l.5-1.5zm-2 3v1-1zm-3 4l.5 1.5h-1l.5-1.5zm-3 4v1-1zm-3 4q1.5 1-1 2-1.5-1 1-2zm-5 6v1-1zm-1 2v1-1zm-5 5l.5.5-2 2-.5 1.5-.5-1.5 2.5-2.5zm-23 23l.5.5-2.5 2.5-.5-.5 2.5-2.5zm-6 6v1-1zm-2 1q1.5 1-1 2-1.5-1 1-2zm-5 4q1.5 1-1 2-1.5-1 1-2zm-5 4v1-1zm-4 3v1-1zm-4 3v1-1zm-3 2l1.5.5-1.5.5v-1zm-3 2v1-1zm-6 4v1-1zm-3 2l1.5.5-1.5.5v-1zm-5 3v1-1zm-5 3q1.5 1-1 2l-1.5-.5 2.5-1.5zm-11 6q1.5 1-1 2l-3 1v-1l4-2zm-6 3v1-1zm-9 4v1-1zm-2 1v1-1zm-5 2v1-1zm-2 1v1-1zm-5 2v1-1zm-3 1v1-1zm-4 2v1-1zm-14 4v1-1zm-3 1v1-1zm-4 1v1-1zm-8 2v1-1zm-4 1v1-1zm-4 1v1-1zm-5 1v1-1zm-6 1v1-1zm-6 1v1-1zm-8 1l1.5.5-1.5.5v-1zm-64 1v1-1zm55 0l1.5.5-1.5.5v-1zm-40 1l2.5.5-2.5.5v-1zm24 0l2.5.5-2.5.5v-1z"/><path fill="#8ED5BC" stroke="#8ED5BC" opacity=".212" d="M565.5 260l3.5.5-3.5.5v-1zm6 0l1.5.5-1.5.5v-1zm31 0v1-1zm2 0v1-1zm-48 1l3.5.5-3.5.5v-1zm-10 1l4.5.5-4.5.5v-1zm78 0l1.5.5-1.5.5v-1zm-85 1l4.5.5-4.5.5v-1zm-5 1l2.5.5-2.5.5v-1zm-6 1l2.5.5-2.5.5v-1zm-4 1l2.5.5-2.5.5v-1zm-5 1l2.5.5-2.5.5v-1zm-4 1l1.5.5-1.5.5v-1zm-4 1l1.5.5-1.5.5v-1zm-4 1l1.5.5-1.5.5v-1zm-3 1l1.5.5-1.5.5v-1zm-4 1l1.5.5-1.5.5v-1zm-3 1l1.5.5-1.5.5v-1zm-3 1l1.5.5-1.5.5v-1zm-3 1l1.5.5-1.5.5v-1zm-3 1l1.5.5-1.5.5v-1zm195 0v1-1zm-198 1l1.5.5-1.5.5v-1zm-3 1l1.5.5-6.5 2.5v-1l5-2zm209 1v1-1zm-216 2v1-1zm-2 1v1-1zm-3 1l1.5.5-1.5.5v-1zm-2 1v1-1zm235 0v1-1zm-238 1v1-1zm-2 1v1-1zm-2 1v1-1zm-2 1v1-1zm-2 1v1-1zm257 0v1-1zm-259 1v1-1zm261 0v1-1zm-263 1v1-1zm-2 1v1-1zm-2 1v1-1zm-2 1v1-1zm-2 1v1-1zm-2 1v1-1zm-2 1q1.5 1-1 2-1.5-1 1-2zm-3 2v1-1zm-2 1v1-1zm300 1v1-1zm-303 1v1-1zm-2 1q1.5 1-1 2-1.5-1 1-2zm-3 2v1-1zm-3 2v1-1zm-3 2v1-1zm-3 2v1-1zm-3 2q1.5 1-1 2-1.5-1 1-2zm-4 3v1-1zm348 1v1-1zm-352 2v1-1zm-4 3q1.5 1-1 2-1.5-1 1-2zm365 2v1-1zm-369 1l.5.5-2.5 2.5-.5-.5 2.5-2.5zm-6 5l.5.5-4.5 4.5-.5-.5 4.5-4.5zm389 6v1-1zm-399 3v1-1zm-3 3l.5.5-2.5 2.5-.5-.5 2.5-2.5zm-4 4v1-1zm-3 3l.5.5-3.5 3.5-.5-.5 3.5-3.5zm-10 11q1.5 1-1 2-1.5-1 1-2zm-6 7v1-1zm-5 6v1-1zm-3 4v1-1zm-3 4v1-1zm-2 3v1-1zm481 1v1-1zm-483 2v1-1zm-3 4v1-1zm-5 8v1-1zm-3 5v1-1zm-3 5v1-1zm-1 2v1-1zm-1 2v1-1zm519 5v1-1zm3 6v1-1zm-532 9v1-1zm-1 2v1-1zm-2 5v1-1zm-38 46l23.5.5-23.5.5v-1zm20 15v1-1zm-3 21v1-1zm116 13l169.5.5-169.5.5v-1zm-140 6v1-1zm586 0v1-1zm-115 5l.5 14.5h-1l.5-14.5zm115 21l.5 5.5h-1l.5-5.5zm-586 3v1-1zm0 3l.5 1.5h-1l.5-1.5zm585 9l.5 2.5h-1l.5-2.5zm-1 8l.5 3.5h-1l.5-3.5zm-582 2v1-1zm581 6l.5 1.5h-1l.5-1.5zm-579 6l.5 2.5h-1l.5-2.5zm578 0l.5 1.5h-1l.5-1.5zm-1 5v1-1zm-576 1v1-1zm575 4l.5 1.5h-1l.5-1.5zm-574 1v1-1zm573 4v1-1zm-1 4l.5 1.5h-1l.5-1.5zm-569 4l.5 1.5h-1l.5-1.5zm568 0l.5 1.5h-1l.5-1.5zm-1 4v1-1zm-1 3l.5 1.5h-1l.5-1.5zm-1 4v1-1zm-561 3l.5 1.5h-1l.5-1.5zm560 0v1-1zm-464 18l471.5.5-471.5.5v-1zm-74 2v1-1zm546 0v1-1zm-1 2l.5 1.5h-1l.5-1.5zm-544 1v1-1zm1 2v1-1zm542 0v1-1zm-541 2v1-1zm540 0v1-1zm-539 3v1-1zm1 2v1-1zm536 0v1-1zm-535 2v1-1zm534 0v1-1zm-533 2v1-1zm532 0v1-1zm-1 2v1-1zm-530 1v1-1zm529 1v1-1zm-528 1v1-1zm527 1v1-1zm-526 1v1-1zm525 1v1-1zm-524 1v1-1zm523 1v1-1zm-522 1v1-1zm521 1v1-1zm-519 2v1-1zm518 0v1-1zm-517 2v1-1zm516 0v1-1zm-515 2v1-1zm514 0v1-1zm-513 2v1-1zm512 0v1-1zm-511 2q2.5 1 1 2-2.5-1-1-2zm509 1v1-1zm-507 2v1-1zm506 0v1-1zm-505 2q2.5 1 1 2-2.5-1-1-2zm503 1v1-1zm-501 2v1-1zm500 0v1-1zm-499 2q2.5 1 1 2-2.5-1-1-2zm497 1v1-1zm-495 2q2.5 1 1 2-2.5-1-1-2zm494 0q1.5 1-1 2-1.5-1 1-2zm-492 3q2.5 1 1 2-2.5-1-1-2zm489 1v1-1zm-487 2q2.5 1 1 2-2.5-1-1-2zm485 1v1-1zm-482 3v1-1zm480 0v1-1zm-478 3q2.5 1 1 2-2.5-1-1-2zm476 0q1.5 1-1 2-1.5-1 1-2zm-473 4q2.5 1 1 2-2.5-1-1-2zm470 0q1.5 1-1 2-1.5-1 1-2zm-467 4q2.5 1 1 2-2.5-1-1-2zm464 0q1.5 1-1 2-1.5-1 1-2zm-461 4l2.5 2.5-.5.5-2.5-2.5.5-.5zm458 0l.5.5-3.5 3.5-.5-.5 3.5-3.5zm-453 6l3.5 3.5-.5.5-3.5-3.5.5-.5zm447 1l.5.5-3.5 3.5-.5-.5 3.5-3.5zm-440 7v1-1zm433 1l.5.5-18.5 18.5-.5-.5 18.5-18.5zm-431 1l18.5 18.5-.5.5-18.5-18.5.5-.5zm22 21l4.5 4.5-.5.5-4.5-4.5.5-.5zm386 0l.5.5-2.5 2.5-.5-.5 2.5-2.5zm-379 6l2.5 2.5-.5.5-2.5-2.5.5-.5zm372 0q1.5 1-1 2-1.5-1 1-2zm-367 4l2.5 2.5-.5.5-2.5-2.5.5-.5zm362 0l.5.5-2.5 2.5-.5-.5 2.5-2.5zm-358 3q2.5 1 1 2-2.5-1-1-2zm354 0l.5.5-2.5 2.5-.5-.5 2.5-2.5zm-350 3q2.5 1 1 2-2.5-1-1-2zm346 0q1.5 1-1 2-1.5-1 1-2zm-342 3v1-1zm338 0v1-1zm-335 2q2.5 1 1 2-2.5-1-1-2zm332 0q1.5 1-1 2-1.5-1 1-2zm-329 2q2.5 1 1 2-2.5-1-1-2zm326 0q1.5 1-1 2-1.5-1 1-2zm-323 2q2.5 1 1 2-2.5-1-1-2zm320 0q1.5 1-1 2-1.5-1 1-2zm-317 2q2.5 1 1 2-2.5-1-1-2zm314 0v1-1zm-311 2v1-1zm308 0v1-1zm-306 1q2.5 1 1 2-2.5-1-1-2zm304 0q1.5 1-1 2-1.5-1 1-2zm-301 2v1-1zm298 0v1-1zm-296 1v1-1zm294 0q1.5 1-1 2-1.5-1 1-2zm-292 1q2.5 1 1 2-2.5-1-1-2zm3 2v1-1zm284 0v1-1zm-282 1v1-1zm280 0v1-1zm-278 1l2.5 1.5-1.5.5q-2.5-1-1-2zm276 0v1-1zm-2 1v1-1zm-270 1q2.5 1 1 2-2.5-1-1-2zm3 2l3.5 1.5-1.5.5-2.5-1.5.5-.5zm260 1v1-1zm-255 1v1-1zm252 0l1.5.5-1.5.5v-1zm-250 1v1-1zm248 0v1-1zm-246 1v1-1zm244 0v1-1zm-242 1v1-1zm240 0v1-1zm-238 1v1-1zm236 0v1-1zm-234 1l1.5.5-1.5.5v-1zm231 0l1.5.5-1.5.5v-1zm-228 1v1-1zm226 0v1-1zm-224 1l1.5.5-1.5.5v-1zm222 0v1-1zm-219 1v1-1zm216 0v1-1zm-214 1l1.5.5-1.5.5v-1zm212 0v1-1zm-209 1v1-1zm206 0v1-1zm-204 1l1.5.5-1.5.5v-1zm201 0v1-1zm-198 1l1.5.5-1.5.5v-1zm195 0v1-1zm-192 1l1.5.5-1.5.5v-1zm189 0l1.5.5-1.5.5v-1zm-186 1l1.5.5-1.5.5v-1zm183 0l1.5.5-1.5.5v-1zm-179 1v1-1zm176 0v1-1zm-173 1v1-1zm170 0l1.5.5-1.5.5v-1zm-167 1l1.5.5-1.5.5v-1zm164 0v1-1zm-160 1v1-1zm156 0v1-1zm-153 1l1.5.5-1.5.5v-1zm149 0l1.5.5-1.5.5v-1zm-145 1l1.5.5-1.5.5v-1zm141 0l1.5.5-1.5.5v-1zm-137 1l1.5.5-1.5.5v-1zm133 0l1.5.5-1.5.5v-1zm-129 1l2.5.5-2.5.5v-1zm125 0l1.5.5-1.5.5v-1zm-119 1l1.5.5-1.5.5v-1zm114 0l1.5.5-1.5.5v-1zm-110 1l2.5.5-2.5.5v-1zm104 0l2.5.5-2.5.5v-1zm-98 1l3.5.5-3.5.5v-1zm92 0l2.5.5-2.5.5v-1zm-86 1l4.5.5-4.5.5v-1zm79 0l2.5.5-2.5.5v-1zm-70 1l3.5.5-3.5.5v-1zm61 0l3.5.5-3.5.5v-1zm-50 1l7.5.5-7.5.5v-1zm35 0l7.5.5-7.5.5v-1z"/><path fill="#9BDAA2" stroke="#9BDAA2" opacity=".231" d="M569.5 260l1.5.5-1.5.5v-1zm4 0l10.5.5-10.5.5v-1zm14 0l14.5.5-14.5.5v-1zm16 0v1-1zm-49 1l1.5.5-1.5.5v-1zm6 0v1-1zm49 0l7.5.5-7.5.5v-1zm11 1l3.5.5-3.5.5v-1zm8 1l3.5.5-3.5.5v-1zm-95 1v1-1zm101 0l3.5.5-3.5.5v-1zm6 1l2.5.5-2.5.5v-1zm-117 1v1-1zm122 0l2.5.5-2.5.5v-1zm5 1l2.5.5-2.5.5v-1zm-136 1v1-1zm140 0l2.5.5-2.5.5v-1zm4 1l2.5.5-2.5.5v-1zm4 1l1.5.5-1.5.5v-1zm3 1l2.5.5-2.5.5v-1zm4 1l1.5.5-1.5.5v-1zm3 1l1.5.5-1.5.5v-1zm3 1l4.5 1.5-1.5.5-3-1v-1zm6 2l1.5.5-1.5.5v-1zm3 1l1.5.5-1.5.5v-1zm3 1v1-1zm2 1l1.5.5-1.5.5v-1zm3 1l1.5.5-1.5.5v-1zm3 1l2.5 1.5-1.5-.5q-2.37-.13-1-1zm5 2v1-1zm5 2v1-1zm2 1v1-1zm2 1v1-1zm2 1v1-1zm8 4v1-1zm2 1v1-1zm2 1v1-1zm2 1v1-1zm7 4v1-1zm15 9v1-1zm3 2v1-1zm3 2v1-1zm4 3v1-1zm-352 6v1-1zm360 0v1-1zm-379 16v1-1zm-16 16v1-1zm431 1v1-1zm7 8q2.5 1 1 2-2.5-1-1-2zm6 7v1-1zm14 19v1-1zm4 6v1-1zm22 41v1-1zm3 7v1-1zm2 5v1-1zm-88 16l.5 19.5h-1l.5-19.5zm101 27v1-1zm1 5v1-1zm5 36v1-1zm-299 4l146.5.5-146.5.5v-1zm276 38v1-1zm-583 27v1-1zm578 10l.5 1.5h-1l.5-1.5zm-570 21l63.5.5-63.5.5v-1zm27 38v1-1zm4 9v1-1zm6 12v1-1zm505 25v1-1zm-486 6v1-1zm2 3v1-1zm3 4v1-1zm3 4v1-1zm8 10v1-1zm7 8v1-1zm2 2v1-1zm400 30v1-1zm-359 7v1-1zm4 3v1-1zm3 2v1-1zm22 14v1-1zm11 6v1-1zm270 0v1-1zm-262 4v1-1zm2 1v1-1zm36 14v1-1zm178 0v1-1zm-175 1v1-1zm7 2v1-1zm158 0v1-1zm-137 5v1-1z"/><path fill="#A7E08C" stroke="#A7E08C" opacity=".259" d="M605.5 260v1-1zm-87 7v1-1zm162 8v1-1zm8 3v1-1zm10 4v1-1zm4 2v1-1zm2 1v1-1zm2 1v1-1zm7 3v1-1zm2 1v1-1zm2 1v1-1zm9 5l4.5 2.5-1.5-.5-3-1v-1zm8 4q2.5 1 1 2-2.5-1-1-2zm3 2l3.5 2.5-1.5-.5q-3.81-.69-2-2zm5 3l4.5 3.5-.5.5-2-2q-3.81-.69-2-2zm6 4q2.5 1 1 2-2.5-1-1-2zm3 2q2.5 1 1 2-2.5-1-1-2zm3 2q2.5 1 1 2-2.5-1-1-2zm4 3q2.5 1 1 2-2.5-1-1-2zm3 2l2.5 2.5-.5.5-2.5-2.5.5-.5zm5 4l2.5 2.5-.5.5-2.5-2.5.5-.5zm4 3l12.5 11.5-.5.5-7-7-5.5-4.5.5-.5zm14 12l16.5 16.5-.5.5-16.5-16.5.5-.5zm18 18v1-1zm1 2l4.5 4.5-.5.5-4.5-4.5.5-.5zm7 8l3.5 3.5-.5.5-3.5-3.5.5-.5zm4 5l6.5 7.5-.5.5-2.5-2.5-4-5 .5-.5zm7 9l2.5 2.5-.5.5-2.5-2.5.5-.5zm3 4q2.5 1 1 2-2.5-1-1-2zm2 3q2.5 1 1 2-2.5-1-1-2zm2 3l3.5 4.5q-1 1.5-2-1l-2-3 .5-.5zm4 6l3.5 4.5q-1 1.5-2-1l-2-3 .5-.5zm4 6l2.5 3.5q-1 1.5-2-1l-.5-2.5zm3 5l4.5 7.5q-1 1.5-2-1l-3-6 .5-.5zm5 9v1-1zm1 2v1-1zm1 2l2.5 4.5h-1l-2-4 .5-.5zm3 6v1-1zm1 2v1-1zm1 2v1-1zm1 2v1-1zm1 2l.5 1.5h-1l.5-1.5zm1 3l1.5 2.5h-1l-.5-2.5zm2 4l.5 1.5h-1l.5-1.5zm1 3v1-1zm1 2l.5 1.5h-1l.5-1.5zm1 3v1-1zm1 2l.5 1.5h-1l.5-1.5zm1 3l2.5 6.5h-1l-2-5 .5-1.5zm3 8l.5 2-94-.5 92.5-.5 1-1zm-93 22h99l.5 1.5-1.5-.5h-98v-1zm100 3l.5 2.5h-1l.5-2.5zm1 5l.5 2.5h-1l.5-2.5zm1 5l.5 2.5h-1l.5-2.5zm1 4l.5 3.5h-1l.5-3.5zm1 6l.5 4.5h-1l.5-4.5zm1 7l.5 4.5h-1l.5-4.5zm1 8l.5 6.5h-1l.5-6.5zm1 11l.5 4-153-.5 152-.5.5-3z"/><path fill="#85D5D1" stroke="#85D5D1" opacity=".996" d="M448.5 294l.5 241H293.5q-1 0-.5-4.5l1-1v-9l1-1 1-14 1-1v-4l1-1v-4l1-1v-4q2-1.13 1-4.5h122.5l.5-.5V460H308.5l-.5-1.5 4-9 1-5 7-14v-2l17-31q21.31-33.19 49.5-59.5l31-25 31-19zM761 660h88.5l.5 1.5-2 3-2 7-19 36q-18.13 28.87-41.5 52.5l-24 21-.5-121z"/><path fill="#8ED7BA" stroke="#8ED7BA" opacity=".996" d="M561.5 261h11l.5.5V535H449V294.5l13.5-7.5h2l12-6 5-1 3-2 18-6h3l12-4 9-1 5-2 12-1 1-1h6l1-1h9l1-1z"/><path fill="#9ADAA4" stroke="#9ADAA4" d="M584.5 260l3 1h21l1 1h10l1 1h7l1 1h5l1 1h5l1 1 9 1 1 1 11 2 4 2h3l18 6 11.5 5v252H573V261.5l.5-.5h10l1-1zm129 52l6.5.5-6.5.5v-1zm-5 1l1.5.5-2.5 1.5q-1.5-1 1-2zm17 0v1-1zm-21 4l-.5 1.5-.5 1.5-.5-1.5 1.5-1.5zm-1 12l.5 1.5h-1l.5-1.5zm1 3v1-1zm1 2l2.5 4.5q-1 1.5-2-1-1.71-1.54-.5-3.5zm4 7q2.5 1 1 2-2.5-1-1-2zm4 5l3.5 3.5-.5.5-3.5-3.5.5-.5z"/><path fill="#A5DD8F" stroke="#A5DD8F" opacity=".996" d="M694.5 281v1-1zm2 1v1-1zm1.5 1l26.5 12 32 20q25.49 18.51 46.5 41.5l21 26 15 23 14 27v2l3 5v2l4 8 2 8 2 4.5h-92.5l-.5.5V484h98.5l1.5 1.5 1 8 1 1v4l1 1v4l1 1v6l1 1v6l1 1v9l1 1v6.5H698V283zm16 29l-3 2-2-1-2 3-4 3 1 2-1 1v6q2 1 0 2-1 2 2 1l-1 2 4 6q2-1 1 3l3 1 1 4 4 3 16 11 13 5h13l4-2 3-4v-10l-7-13-15-15-11-6-6-2q-1-2-2 0l-5-2h-6zm67 50l-5 2-5 5-2 5v5l2 5q3 3 8 5h9l2-1 6-7v-9l-2-4-5-5-8-1z"/><path fill="#E967BA" stroke="#E967BA" opacity=".976" d="M276 460h31.5l1 1h9.5v25h-42v-26zm-5.5 81h163l2.5 1v99.5l.5.5h6v1h-159l-.5-1.5q-2.75-1.08-2-4.5h62.5l.5-.5V631h-63.5l-1 1-.5-4.5-2-3v-3l-2-5q2-1 0-2l-1-3q2-1 0-2v-5l-1-1-1-9-1-1q2-1 0-2 1.25-4.75-1-6v-12l-1-2q2-1 0-2v-27l1.5-1.5zm34 118l73.5.5-73.5.5v-1zm54 90v1-1zm23 23v1-1zm43 32v1-1zm30 16v1-1zm40 15v1-1zm61 11v1-1z"/><path fill="#C05FB5" stroke="#C05FB5" opacity=".98" d="M318 461h34v25h-34v-25zm116.5 80h131l1 1h6.5v99.5q.12 1.13 5.5.5v1h-135l-1-1H436v-99.5l-1.5-.5v-1z"/><path fill="#9956B0" stroke="#9956B0" opacity=".988" d="M355.5 460l38.5.5-7 .5v25h-35v-24.5q-.25-.75 2.5-.5l1-1zm211 81h136l1 1h9.5v99.5l-.5.5h-9l-1 1h-123l-1-1H573v-99.5l-.5-.5h-6v-1z"/><path fill="#724EAB" stroke="#724EAB" opacity=".976" d="M394.5 460H423v26h-36v-25h6.5l1-1zm309 81h151l1.5 1.5q.38 3.63-.5 3.5h-115l-.5.5V561h115.5q1.12.13.5 5.5l-1 1v14l-1 1v7l-1 1-1 13-1 1v4l-1 1v4l-1 1v4l-1 1-2 11-2 4v3l-2 5.5-139-.5 10-.5v-99.5l-.5-.5h-9v-1z"/><path fill="#C375BF" stroke="#C375BF" opacity=".988" d="M308.5 460l46.5.5-46.5.5v-1zm-4 200H461v161.5l.5 1.5-27-13-27-17q-28.04-19.96-50.5-45.5-15.92-18.08-29-39l-16-29v-2l-7-14-.5-3.5zm159 163v1-1zm5 2v1-1z"/><path fill="#B190BE" stroke="#B190BE" opacity=".996" d="M711.5 313h12l9 3 15 9 11.5 11.5 7 13v10l-3.5 4.5-4 2h-13l-9-3-9-5-8-6-7.5-7.5-7-11-2-6v-6l1-3 4.5-4.5 3-1zm69 49l8 1 5.5 4.5 2 4v9l-6.5 7.5-2 1h-9q-4.83-1.67-7.5-5.5l-2-5v-5l2-5 4.5-4.5 5-2zM461 660h102v186l-21.5-1-1-1h-6l-1-1h-6l-1-1-14-2-1-1-11-2-4-2h-3l-18-6-3-2h-2l-2-2h-3l-4.5-3.5V660zm106.5 186v1-1z"/><path fill="#A7ADCC" stroke="#A7ADCC" opacity=".996" d="M563 660h134v161l-13.5 6-5 1-3 2-12 4h-3l-3 2h-3l-4 2h-4l-9 3-10 1-1 1h-5l-1 1h-7l-1 1h-8l-1 1h-15l-1 1h-19l-1-1H563V660z"/><path fill="#9EC9D4" stroke="#9EC9D4" opacity=".941" d="M697 660h64v120.5h2L748.5 792l-18 12-10 5-2 2-21.5 10V660zm152.5 2v1-1zm-1 2v1-1zm-2 5v1-1zm-4 9v1-1zm-1 2v1-1zm-1 2v1-1zm-1 2v1-1zm-1 2v1-1zm-1 2v1-1zm-1 2v1-1zm-4 7v1-1zm-1 2v1-1zm-3 5v1-1zm-3 5v1-1zm-2 3v1-1zm-2 3v1-1zm-2 3v1-1zm-2 3v1-1zm-2 3q1.5 1-1 2-1.5-1 1-2zm-3 4q1.5 1-1 2-1.5-1 1-2zm-3 4q1.5 1-1 2-1.5-1 1-2zm-4 5q1.5 1-1 2-1.5-1 1-2zm-4 5l.5.5-3.5 3.5-.5-.5 3.5-3.5zm-8 9l.5.5-5.5 5.5-.5-.5 5.5-5.5zm-9 9l.5.5-10.5 10.5-.5-.5 10.5-10.5zm-15 14l.5.5-3.5 3.5-.5-.5 3.5-3.5zm-74 47v1-1zm-2 1v1-1zm-2 1v1-1zm-5 2v1-1zm-2 1v1-1zm-3 1v1-1zm-3 1v1-1zm-2 1v1-1zm-3 1v1-1zm-3 1v1-1zm-3 1v1-1zm-3 1v1-1zm-4 1v1-1z"/></svg>